<svg xmlns="http://www.w3.org/2000/svg" xmlns:svg="http://www.w3.org/2000/svg" id="SVGRoot" width="32" height="32" version="1.1" viewBox="0 0 32 32"><metadata id="metadata1507"/><g id="layer1"><path style="color:#000;fill:#fff;stroke-linecap:round;stroke-linejoin:round;-inkscape-stroke:none;paint-order:markers fill stroke" id="path45378" d="m 16,4.6660156 c -4.095264,0 -7.4589844,3.27612 -7.4589844,7.3164064 a 1.0001,1.0001 0 0 0 0,0.002 c 0.00246,0.969177 0.2017584,1.925964 0.5800782,2.816406 a 1.0001,1.0001 0 0 0 0.015625,0.0332 L 14.539063,26.375 c 0.251906,0.5872 0.830694,0.958297 1.458984,0.958984 a 1.0001,1.0001 0 0 0 0.0039,0 c 0.628299,-6.87e-4 1.207054,-0.372054 1.458984,-0.958984 l 5.402344,-11.541016 a 1.0001,1.0001 0 0 0 0.01563,-0.0332 c 0.37844,-0.890761 0.57706,-1.847996 0.580078,-2.816406 a 1.0001,1.0001 0 0 0 0,-0.002 C 23.458984,7.942138 20.095274,4.6660156 16,4.6660156 Z m 0,2 c 3.037725,0 5.45789,2.3805294 5.458984,5.3144534 -0.0024,0.699122 -0.147087,1.392275 -0.421875,2.039062 L 16,24.78125 10.962891,14.019531 C 10.688209,13.37302 10.543306,12.680127 10.541016,11.982422 v -0.002 c -2e-6,-6.42e-4 10e-7,-0.0013 0,-0.002 C 10.543205,9.0455096 12.962976,6.6660156 16,6.6660156 Z"/></g></svg>